<svg xmlns="http://www.w3.org/2000/svg" width="2939" height="662.5" viewBox="0 0 2939 662.5">
  <g id="Layer_3" transform="translate(-8.2 -155.7)">
    <g id="Group_4067" data-name="Group 4067">
      <path id="Path_9928" data-name="Path 9928" d="M356.3,565.8H140.1L108.8,662H8.2L174.9,160.8H317.7L487,662H388.2Zm-22-70.1L247.6,234.6,162.4,495.7Z" fill="#f8f9fa"/>
      <path id="Path_9929" data-name="Path 9929" d="M527.8,311h85.6l-3.3,52.1,1.8.4q30.45-56.85,113.5-56.9c51.2,0,86.3,12.7,105.6,38q28.8,37.95,28.8,138.6,0,105-28.6,143.9-28.65,39-106.1,38.9-82.65,0-108-55.1h-1.5V812.5H527.8Zm165.6,62.1q-48.15,0-62.8,21.7-14.7,21.6-14.7,91.8c0,45.5,5.3,75.8,15.8,90.7s31.9,22.4,64.3,22.4q49.2,0,63.9-21.3T774.6,487c0-48-5-78.9-14.9-92.9S727.7,373.1,693.4,373.1Z" fill="#f8f9fa"/>
      <path id="Path_9930" data-name="Path 9930" d="M929.9,311h85.6l-3.3,52.1,1.8.4q30.45-56.85,113.5-56.9c51.2,0,86.3,12.7,105.6,38q28.8,37.95,28.8,138.6,0,105-28.6,143.9-28.65,39-106.1,38.9-82.65,0-108-55.1h-1.5V812.5H929.9V311Zm165.6,62.1q-48.15,0-62.8,21.7-14.7,21.6-14.7,91.8c0,45.5,5.3,75.8,15.8,90.7s31.9,22.4,64.3,22.4q49.2,0,63.9-21.3t14.7-91.4c0-48-5-78.9-14.9-92.9S1129.7,373.1,1095.5,373.1Z" fill="#f8f9fa"/>
      <path id="Path_9931" data-name="Path 9931" d="M1416,160.8V231h-84.1V160.9H1416Zm0,150.2V662h-84.1V311Z" fill="#f8f9fa"/>
      <path id="Path_9932" data-name="Path 9932" d="M1515.9,662V374.9h-49.6V311h49.6V273.5q0-66.75,28.8-92.3,28.8-25.5,104.5-25.5c8.6,0,20.4.4,35.6,1.1v65.7c-11.5-2.7-21.3-4-29.4-4-37,0-55.4,18.4-55.4,55.1V311h87.4v63.9H1600V662Z" fill="#f8f9fa"/>
      <path id="Path_9933" data-name="Path 9933" d="M2022.6,311l-92.2,373.1q-19.5,79.35-48.3,106.7c-19.2,18.2-50,27.4-92.3,27.4-9.5,0-19.5-.5-29.7-1.5V754.6c7.3.5,13.5.7,18.4.7q53.55,0,67.9-93.3h-43L1688.5,311h90.3l44.1,148.7,22,74.5c1.2,4.9,4.6,17.4,10.3,37.5l10.6,37.1h1.8l7.7-37.1c3.9-19.1,6.5-31.6,7.7-37.5l17.3-74.5L1934.1,311h88.5Z" fill="#f8f9fa"/>
      <path id="Path_9934" data-name="Path 9934" d="M2144.5,160.8V662h-84.1V160.8Z" fill="#f8f9fa"/>
      <path id="Path_9935" data-name="Path 9935" d="M2314.5,412.7h-85.9q0-63.15,29.4-84.5,29.4-21.3,116.4-21.3,94.8,0,128.1,26.1,33.45,26.1,33.4,99.5V662h-84.1l4-48.1-2.2-.4q-24.3,52.5-112,52.5-127.35,0-127.4-108.3,0-109.35,130.4-109.4,87,0,105.8,40h1.5V431.4q0-41.1-14.3-54.5-14.25-13.35-58.8-13.4C2336,363.5,2314.5,379.9,2314.5,412.7Zm56.2,92.2q-71.25,0-71.2,49.2c0,22.8,4.9,37.7,14.7,44.8s30.4,10.6,61.7,10.6q76.8,0,76.7-51.8Q2452.6,504.9,2370.7,504.9Z" fill="#f8f9fa"/>
      <path id="Path_9936" data-name="Path 9936" d="M2619.7,662V160.8h84.1V361.3l1.8.7q21.6-55.5,109.8-55.4,75.6,0,103.7,36.9,28.05,36.9,28.1,136.8,0,109.05-28.5,147.4-28.5,38.4-109.2,38.4-81.9,0-107.6-59.5h-1.8l3.7,55.4Zm167-288.9q-81.9,0-81.9,101.7c0,53.1,4.6,87.2,14,102.3q13.95,22.65,63.2,22.6,51.45,0,65.7-20.7c9.5-13.8,14.3-45.5,14.3-94.9q0-69-14.1-90C2838.5,380,2818.1,373.1,2786.7,373.1Z" fill="#f8f9fa"/>
    </g>
  </g>
</svg>
