<svg id="Layer_1" data-name="Layer 1" xmlns="http://www.w3.org/2000/svg" viewBox="0 0 93 48.17"><defs><style>.cls-1{fill:#fff;}</style></defs><title>loader2</title><g id="Group_183" data-name="Group 183"><path id="Path_119" data-name="Path 119" class="cls-1" d="M42.93,25.74,26.67,9.48a14.68,14.68,0,0,0-20.76,0h0a14.68,14.68,0,0,0,0,20.76L22.17,46.5a14.68,14.68,0,0,0,20.76,0h0A14.68,14.68,0,0,0,42.93,25.74Z" transform="translate(-1.61 -2.76)"/><path id="Path_120" data-name="Path 120" class="cls-1" d="M90.32,19.91h0a14.68,14.68,0,0,0-20.76,0h0a14.68,14.68,0,0,0,0,20.76h0a14.68,14.68,0,0,0,20.76,0h0a14.68,14.68,0,0,0,0-20.76Z" transform="translate(-1.61 -2.76)"/><path id="Path_121" data-name="Path 121" class="cls-1" d="M28.17,19.87,22.1,25.94l0,0A14.68,14.68,0,0,1,3.93,27.77a14.75,14.75,0,0,0,2,2.47l6.55,6.56.07,0,9.71,9.71L48.86,19.87h0a14.62,14.62,0,0,0-20.68,0Z" transform="translate(-1.61 -2.76)"/><path id="Path_122" data-name="Path 122" class="cls-1" d="M79.88,9.61h0a14.41,14.41,0,0,0-20.4-.33l-.28.28-26.6,26.6h0a14.69,14.69,0,0,1-19.77.9l9.44,9.43h0a14.67,14.67,0,0,0,20.73,0L68.9,20.57h0c.2-.23.41-.45.62-.67h0a14.66,14.66,0,0,1,14.08-3.82,14.62,14.62,0,0,0-3.77-6.48Z" transform="translate(-1.61 -2.76)"/><path id="Path_123" data-name="Path 123" class="cls-1" d="M83.64,16.09a14.67,14.67,0,0,0-14.09,3.83c-.21.21-.42.44-.62.66h0L43,46.48l-.15.13,0,0h0a14.67,14.67,0,0,0,20.76,0L79.88,30.38a14.69,14.69,0,0,0,3.76-14.29Z" transform="translate(-1.61 -2.76)"/><circle id="Ellipse_4" data-name="Ellipse 4" class="cls-1" cx="38.3" cy="9.2" r="2.34"/><circle id="Ellipse_5" data-name="Ellipse 5" class="cls-1" cx="33.14" cy="5.49" r="1.5"/><circle id="Ellipse_6" data-name="Ellipse 6" class="cls-1" cx="36.45" cy="1.5" r="1.5"/></g></svg>