<svg xmlns="http://www.w3.org/2000/svg" width="17.999" height="18" viewBox="0 0 17.999 18">
  <g id="Path_766" data-name="Path 766" transform="translate(6504.999 8291)" fill="rgba(255,255,255,0)">
    <path d="M-6499-8273v-6h-6v-6h6v-6h6v6h6v6h-6v6Z" stroke="none"/>
    <path d="M -6493.99951171875 -8274 L -6493.99951171875 -8280.0009765625 L -6488.00048828125 -8280.0009765625 L -6488.00048828125 -8283.9990234375 L -6493.99951171875 -8283.9990234375 L -6493.99951171875 -8290 L -6498.00048828125 -8290 L -6498.00048828125 -8283.9990234375 L -6503.9990234375 -8283.9990234375 L -6503.9990234375 -8280.0009765625 L -6498.00048828125 -8280.0009765625 L -6498.00048828125 -8274 L -6493.99951171875 -8274 M -6492.99951171875 -8273 L -6499.00048828125 -8273 L -6499.00048828125 -8279.0009765625 L -6504.9990234375 -8279.0009765625 L -6504.9990234375 -8284.9990234375 L -6499.00048828125 -8284.9990234375 L -6499.00048828125 -8291 L -6492.99951171875 -8291 L -6492.99951171875 -8284.9990234375 L -6487.00048828125 -8284.9990234375 L -6487.00048828125 -8279.0009765625 L -6492.99951171875 -8279.0009765625 L -6492.99951171875 -8273 Z" stroke="none" fill="rgba(112,112,112,0.69)"/>
  </g>
</svg>
